<svg width="19" height="22" viewBox="0 0 19 22" fill="none" xmlns="http://www.w3.org/2000/svg">
<path d="M5.28571 10.4935H4.78571V11.4935H5.28571V10.4935ZM13.8571 11.4935H14.3571V10.4935H13.8571V11.4935ZM5.28626 14.7764L4.78626 14.7758L4.78517 15.7758L5.28517 15.7764L5.28626 14.7764ZM13.8566 15.7857L14.3566 15.7863L14.3577 14.7863L13.8577 14.7857L13.8566 15.7857ZM5.28604 6.21054L4.78604 6.21021L4.78539 7.21021L5.28539 7.21054L5.28604 6.21054ZM10.9997 7.21429L11.4997 7.21461L11.5003 6.21461L11.0003 6.21429L10.9997 7.21429ZM13.8571 1L14.2107 0.646447L14.0642 0.5H13.8571V1ZM18.1429 5.28571H18.6429V5.07861L18.4964 4.93216L18.1429 5.28571ZM5.28571 11.4935H13.8571V10.4935H5.28571V11.4935ZM5.28517 15.7764L13.8566 15.7857L13.8577 14.7857L5.28626 14.7764L5.28517 15.7764ZM5.28539 7.21054L10.9997 7.21429L11.0003 6.21429L5.28604 6.21054L5.28539 7.21054ZM16.7143 20.5H2.42857V21.5H16.7143V20.5ZM1.5 19.5714V2.42857H0.5V19.5714H1.5ZM2.42857 1.5H13.8571V0.5H2.42857V1.5ZM17.6429 5.28571V19.5714H18.6429V5.28571H17.6429ZM13.5036 1.35355L17.7893 5.63927L18.4964 4.93216L14.2107 0.646447L13.5036 1.35355ZM2.42857 20.5C1.91574 20.5 1.5 20.0843 1.5 19.5714H0.5C0.5 20.6365 1.36345 21.5 2.42857 21.5V20.5ZM16.7143 21.5C17.7794 21.5 18.6429 20.6366 18.6429 19.5714H17.6429C17.6429 20.0843 17.2271 20.5 16.7143 20.5V21.5ZM1.5 2.42857C1.5 1.91574 1.91574 1.5 2.42857 1.5V0.5C1.36345 0.5 0.5 1.36345 0.5 2.42857H1.5Z" fill="#3DA0BF"/>
</svg>
