<svg width="22" height="16" viewBox="0 0 22 16" fill="none" xmlns="http://www.w3.org/2000/svg">
<path d="M6.71429 8.50002L9.57143 8.50002M9.57143 8.50002L15.882 5M9.57143 8.50002L15.6429 11.6065M21.3571 3.85528C21.3571 5.43139 20.0771 6.71056 18.5 6.71056C16.9229 6.71056 15.6429 5.43139 15.6429 3.85528C15.6429 2.27917 16.9229 1 18.5 1C20.0771 1 21.3571 2.27917 21.3571 3.85528ZM21.2143 12.5C21.2143 14.0761 19.9343 15.3553 18.3571 15.3553C16.78 15.3553 15.5 14.0761 15.5 12.5C15.5 10.9239 16.78 9.64472 18.3571 9.64472C19.9343 9.64472 21.2143 10.9239 21.2143 12.5ZM6.71429 8.4935C6.71429 10.0696 5.43429 11.3488 3.85714 11.3488C2.28 11.3488 1 10.0696 1 8.4935C1 6.91738 2.28 5.63822 3.85714 5.63822C5.43429 5.63822 6.71429 6.91738 6.71429 8.4935Z" stroke="#3DA0BF" stroke-linecap="square"/>
</svg>
