<svg width="21" height="21" viewBox="0 0 21 21" fill="none" xmlns="http://www.w3.org/2000/svg">
<path d="M5.15227 7.85113L4.73044 7.5827L4.65227 7.70553V7.85113H5.15227ZM8.88601 1.98384L9.30784 2.25228L8.88601 1.98384ZM12.5773 4.07381L12.1301 3.85021V3.85021L12.5773 4.07381ZM10.6886 7.85113L10.2414 7.62753C10.1639 7.78252 10.1722 7.96659 10.2633 8.114C10.3544 8.26141 10.5154 8.35113 10.6886 8.35113V7.85113ZM20.3773 14.7716L20.7773 15.0716L20.8773 14.9383V14.7716H20.3773ZM17.0555 19.2007L17.4555 19.5007L17.0555 19.2007ZM11.7704 1.30292L12.0277 0.874178V0.874177L11.7704 1.30292ZM0.5 7.15909V21H1.5V7.15909H0.5ZM5.5741 8.11957L9.30784 2.25228L8.46417 1.7154L4.73044 7.5827L5.5741 8.11957ZM12.1301 3.85021L10.2414 7.62753L11.1359 8.07474L13.0245 4.29742L12.1301 3.85021ZM10.6886 8.35113H17.6091V7.35113H10.6886V8.35113ZM19.8773 10.6193V14.7716H20.8773V10.6193H19.8773ZM19.9773 14.4716L16.6555 18.9007L17.4555 19.5007L20.7773 15.0716L19.9773 14.4716ZM14.8409 19.808H7.92046V20.808H14.8409V19.808ZM5.65227 17.5398V7.85113H4.65227V17.5398H5.65227ZM17.6091 8.35113C18.8618 8.35113 19.8773 9.36663 19.8773 10.6193H20.8773C20.8773 8.81435 19.4141 7.35113 17.6091 7.35113V8.35113ZM7.92046 19.808C6.66777 19.808 5.65227 18.7925 5.65227 17.5398H4.65227C4.65227 19.3447 6.11549 20.808 7.92046 20.808V19.808ZM11.5132 1.73167C12.2407 2.16821 12.5095 3.09131 12.1301 3.85021L13.0245 4.29742C13.6376 3.07115 13.2033 1.57956 12.0277 0.874178L11.5132 1.73167ZM16.6555 18.9007C16.2271 19.4718 15.5548 19.808 14.8409 19.808V20.808C15.8696 20.808 16.8382 20.3236 17.4555 19.5007L16.6555 18.9007ZM9.30784 2.25228C9.78036 1.50974 10.7584 1.27884 11.5132 1.73167L12.0277 0.874177C10.8082 0.142472 9.22771 0.515566 8.46417 1.7154L9.30784 2.25228Z" fill="#3DA0BF"/>
</svg>
