<svg width="22" height="22" viewBox="0 0 22 22" fill="none" xmlns="http://www.w3.org/2000/svg">
<path d="M11 1L11.3254 0.620372C11.1382 0.459876 10.8618 0.459876 10.6746 0.620372L11 1ZM1 9.57143L0.674604 9.1918L0.5 9.34146V9.57143H1ZM8.14286 21V21.5C8.419 21.5 8.64286 21.2761 8.64286 21H8.14286ZM13.8571 21H13.3571C13.3571 21.2761 13.581 21.5 13.8571 21.5V21ZM21 9.57143H21.5V9.34146L21.3254 9.1918L21 9.57143ZM2.42857 21.5H8.14286V20.5H2.42857V21.5ZM21.3254 9.1918L11.3254 0.620372L10.6746 1.37963L20.6746 9.95106L21.3254 9.1918ZM10.6746 0.620372L0.674604 9.1918L1.3254 9.95106L11.3254 1.37963L10.6746 0.620372ZM8.64286 21V16.7143H7.64286V21H8.64286ZM13.3571 16.7143V21H14.3571V16.7143H13.3571ZM13.8571 21.5H19.5714V20.5H13.8571V21.5ZM21.5 19.5714V9.57143H20.5V19.5714H21.5ZM0.5 9.57143V19.5714H1.5V9.57143H0.5ZM11 14.3571C12.3018 14.3571 13.3571 15.4125 13.3571 16.7143H14.3571C14.3571 14.8602 12.8541 13.3571 11 13.3571V14.3571ZM11 13.3571C9.1459 13.3571 7.64286 14.8602 7.64286 16.7143H8.64286C8.64286 15.4125 9.69819 14.3571 11 14.3571V13.3571ZM19.5714 21.5C20.6365 21.5 21.5 20.6365 21.5 19.5714H20.5C20.5 20.0843 20.0843 20.5 19.5714 20.5V21.5ZM2.42857 20.5C1.91574 20.5 1.5 20.0843 1.5 19.5714H0.5C0.5 20.6365 1.36345 21.5 2.42857 21.5V20.5Z" fill="#AAAAAA"/>
</svg>
