<svg width="22" height="22" viewBox="0 0 22 22" fill="none" xmlns="http://www.w3.org/2000/svg">
<path d="M11 11H10.5C10.5 11.1326 10.5527 11.2598 10.6464 11.3536L11 11ZM11 20.5C5.7533 20.5 1.5 16.2467 1.5 11H0.5C0.5 16.799 5.20101 21.5 11 21.5V20.5ZM20.5 11C20.5 16.2467 16.2467 20.5 11 20.5V21.5C16.799 21.5 21.5 16.799 21.5 11H20.5ZM11 1.5C16.2467 1.5 20.5 5.7533 20.5 11H21.5C21.5 5.20101 16.799 0.5 11 0.5V1.5ZM11 0.5C5.20101 0.5 0.5 5.20101 0.5 11H1.5C1.5 5.7533 5.7533 1.5 11 1.5V0.5ZM10.5 4.57143V11H11.5V4.57143H10.5ZM10.6464 11.3536L14.9322 15.6393L15.6393 14.9322L11.3536 10.6464L10.6464 11.3536Z" fill="#3DA0BF"/>
</svg>
