<svg width="22" height="22" viewBox="0 0 22 22" fill="none" xmlns="http://www.w3.org/2000/svg">
<path d="M8.14286 1H2.42857C1.63959 1 1 1.63959 1 2.42857V8.14286C1 8.93184 1.63959 9.57143 2.42857 9.57143H8.14286C8.93184 9.57143 9.57143 8.93184 9.57143 8.14286V2.42857C9.57143 1.63959 8.93184 1 8.14286 1Z" stroke="#AAAAAA"/>
<path d="M19.5714 1H13.8571C13.0682 1 12.4286 1.63959 12.4286 2.42857V8.14286C12.4286 8.93184 13.0682 9.57143 13.8571 9.57143H19.5714C20.3604 9.57143 21 8.93184 21 8.14286V2.42857C21 1.63959 20.3604 1 19.5714 1Z" stroke="#AAAAAA"/>
<path d="M19.5714 12.4286H13.8571C13.0682 12.4286 12.4286 13.0682 12.4286 13.8571V19.5714C12.4286 20.3604 13.0682 21 13.8571 21H19.5714C20.3604 21 21 20.3604 21 19.5714V13.8571C21 13.0682 20.3604 12.4286 19.5714 12.4286Z" stroke="#AAAAAA"/>
<path d="M8.14286 12.4286H2.42857C1.63959 12.4286 1 13.0682 1 13.8571V19.5714C1 20.3604 1.63959 21 2.42857 21H8.14286C8.93184 21 9.57143 20.3604 9.57143 19.5714V13.8571C9.57143 13.0682 8.93184 12.4286 8.14286 12.4286Z" stroke="#AAAAAA"/>
</svg>
