<svg width="61" height="70" viewBox="0 0 61 70" fill="none" xmlns="http://www.w3.org/2000/svg">
<g clip-path="url(#clip0)">
<path d="M8.04764 13.988L5.38428 16.2707L8.97099 20.4278L11.6344 18.1451L8.04764 13.988Z" fill="#41B781"/>
<path d="M7.82083 10.8336C7.20223 10.1069 6.09759 10.0189 5.36853 10.6574L2.49648 13.1236C1.76742 13.7402 1.67904 14.8411 2.31973 15.5678L3.91041 17.4174C4.52901 18.1441 5.63365 18.2321 6.36271 17.5936L9.23476 15.1274C9.96382 14.5108 10.0522 13.4099 9.4115 12.6832L7.82083 10.8336Z" fill="#41B781"/>
<path d="M52.9547 14.6204L48.9774 18.408L51.404 20.9393L55.3813 17.1517L52.9547 14.6204Z" fill="#41B781"/>
<path d="M55.9831 11.6043C55.3203 10.9217 54.2156 10.8776 53.5308 11.5382L51.7634 13.2337C51.0785 13.8943 51.0343 14.9953 51.6971 15.6779L54.304 18.4083C54.9668 19.0909 56.0714 19.135 56.7563 18.4744L58.5237 16.7789C59.2086 16.1183 59.2528 15.0173 58.59 14.3347L55.9831 11.6043Z" fill="#41B781"/>
<path d="M32.9403 5.04247H28.7648V11.5382H32.9403V5.04247Z" fill="#41B781"/>
<path d="M33.4264 0H28.3009C27.3509 0 26.5555 0.770683 26.5555 1.73954V5.26266C26.5555 6.2095 27.3288 7.0022 28.3009 7.0022H33.4264C34.3764 7.0022 35.1717 6.23152 35.1717 5.26266V1.73954C35.1717 0.770683 34.3764 0 33.4264 0Z" fill="#41B781"/>
<path d="M30.3333 70C47.086 70 60.6667 56.4643 60.6667 39.7672C60.6667 23.0701 47.086 9.53444 30.3333 9.53444C13.5807 9.53444 0 23.0701 0 39.7672C0 56.4643 13.5807 70 30.3333 70Z" fill="#54B6D5"/>
<path d="M30.3333 69.1632C46.6223 69.1632 59.8271 56.0022 59.8271 39.7672C59.8271 23.5322 46.6223 10.3712 30.3333 10.3712C14.0443 10.3712 0.839478 23.5322 0.839478 39.7672C0.839478 56.0022 14.0443 69.1632 30.3333 69.1632Z" fill="#3DA0BF"/>
<path d="M48.3443 57.7229C58.292 47.8082 58.292 31.7332 48.3443 21.8185C38.3966 11.9038 22.2682 11.9038 12.3205 21.8185C2.3728 31.7332 2.3728 47.8082 12.3205 57.7229C22.2682 67.6376 38.3966 67.6376 48.3443 57.7229Z" fill="#FAFAFA"/>
<path d="M30.3333 29.5942C24.8322 29.5942 20.3695 34.0421 20.3695 39.525C20.3695 45.0079 24.8322 49.4558 30.3333 49.4558C35.8344 49.4558 40.2972 45.0079 40.2972 39.525C40.2972 34.0421 35.8344 29.5942 30.3333 29.5942Z" fill="#9BD4DC"/>
<path d="M30.3334 27.062C23.4404 27.062 17.8289 32.6549 17.8289 39.525C17.8289 46.3951 23.4404 51.988 30.3334 51.988C37.2263 51.988 42.8378 46.3951 42.8378 39.525C42.8378 32.6549 37.2263 27.062 30.3334 27.062ZM30.3334 51.5036C23.7055 51.5036 18.337 46.1309 18.337 39.547C18.337 32.9632 23.7276 27.5904 30.3334 27.5904C36.9612 27.5904 42.3297 32.9632 42.3297 39.547C42.3297 46.1309 36.9612 51.5036 30.3334 51.5036Z" fill="#9BD4DC"/>
<path d="M30.3333 27.062C30.2892 27.062 30.245 27.062 30.2008 27.062C26.8648 27.106 23.7276 28.4272 21.4079 30.8053C16.5917 35.7156 16.68 43.6206 21.6067 48.4209C24.0369 50.799 27.1962 51.966 30.3554 51.966C33.6031 51.966 36.8507 50.7109 39.303 48.2227C44.1192 43.3124 44.0308 35.4074 39.1042 30.6071C36.7181 28.3171 33.6252 27.062 30.3333 27.062ZM38.9274 47.8924C36.674 50.1824 33.6914 51.4596 30.4659 51.4816C27.2624 51.5256 24.2357 50.3146 21.9381 48.0686C17.2102 43.4445 17.1219 35.8698 21.7393 31.1356C23.9706 28.8455 26.9752 27.5684 30.1787 27.5464C30.2229 27.5464 30.2671 27.5464 30.3112 27.5464C33.4705 27.5464 36.453 28.7575 38.7065 30.9594C43.4564 35.5835 43.5448 43.1802 38.9274 47.8924Z" fill="#9BD4DC"/>
<path d="M30.3334 14.1365C30.2892 14.1365 30.245 14.1365 30.1787 14.1365V39.3929H55.8063C55.74 25.4325 44.3622 14.1365 30.3334 14.1365Z" fill="#A4D31F"/>
<path d="M51.3657 45.118C50.5924 44.9198 49.9296 44.8097 49.9076 44.8757C49.8855 44.9418 50.5041 45.184 51.2773 45.4042C52.0505 45.6244 52.7133 45.7345 52.7354 45.6464C52.7575 45.5583 52.161 45.3381 51.3657 45.118Z" fill="#3DA0BF"/>
<path d="M49.0901 50.5348C48.3831 50.1164 47.7866 49.8522 47.7645 49.8962C47.7203 49.9623 48.2506 50.3366 48.9575 50.777C49.6424 51.1953 50.2389 51.4816 50.2831 51.4155C50.3273 51.3495 49.7971 50.9531 49.0901 50.5348Z" fill="#3DA0BF"/>
<path d="M44.318 54.19C44.2739 54.234 44.6715 54.7625 45.2238 55.335C45.7762 55.9295 46.2843 56.3479 46.3285 56.3039C46.3948 56.2378 45.975 55.7314 45.4227 55.1588C44.8704 54.5643 44.3843 54.146 44.318 54.19Z" fill="#3DA0BF"/>
<path d="M39.8775 57.3828C39.8112 57.4268 40.0763 58.0214 40.4519 58.748C40.8275 59.4526 41.181 60.0031 41.2693 59.9811C41.3356 59.9371 41.0926 59.3425 40.6949 58.6159C40.2972 57.9113 39.9438 57.3608 39.8775 57.3828Z" fill="#3DA0BF"/>
<path d="M34.7298 59.2765C34.6635 59.2985 34.7298 59.9371 34.9065 60.7298C35.0833 61.5225 35.2821 62.139 35.3484 62.117C35.4368 62.095 35.3484 61.4564 35.1717 60.6637C34.9949 59.893 34.7961 59.2765 34.7298 59.2765Z" fill="#3DA0BF"/>
<path d="M23.2416 60.0472C22.9765 60.8179 22.8218 61.4564 22.9102 61.4785C22.9986 61.5005 23.2637 60.9059 23.5067 60.1353C23.7497 59.3646 23.9044 58.726 23.8381 58.704C23.7718 58.682 23.5067 59.2765 23.2416 60.0472Z" fill="#3DA0BF"/>
<path d="M17.9835 57.3828C17.5195 58.0434 17.2102 58.6159 17.2765 58.66C17.3428 58.704 17.7625 58.1976 18.2265 57.537C18.6684 56.8764 18.9997 56.2819 18.9335 56.2598C18.8672 56.2158 18.4474 56.7223 17.9835 57.3828Z" fill="#3DA0BF"/>
<path d="M13.6312 53.4193C13.0126 53.9258 12.5487 54.4102 12.615 54.4762C12.6591 54.5423 13.2115 54.168 13.8301 53.6395C14.4486 53.111 14.9126 52.6486 14.8684 52.5826C14.8242 52.5165 14.2498 52.9129 13.6312 53.4193Z" fill="#3DA0BF"/>
<path d="M10.494 48.4429C9.76497 48.7732 9.19056 49.1035 9.21265 49.1695C9.25684 49.2356 9.87544 49.0374 10.6045 48.6851C11.3336 48.3328 11.908 48.0025 11.8859 47.9585C11.8638 47.9144 11.2452 48.1126 10.494 48.4429Z" fill="#3DA0BF"/>
<path d="M8.8371 42.8279C8.04176 42.938 7.40107 43.1142 7.42316 43.2023C7.44525 43.2903 8.08595 43.2463 8.88128 43.1142C9.67662 42.9821 10.3173 42.8059 10.2952 42.7399C10.2952 42.6738 9.63244 42.6958 8.8371 42.8279Z" fill="#3DA0BF"/>
<path d="M10.2069 31.2677C9.45576 30.9594 8.83716 30.7833 8.79297 30.8493C8.77088 30.9374 9.34529 31.2236 10.0964 31.5319C10.8476 31.8182 11.4883 32.0163 11.5104 31.9503C11.5546 31.8842 10.9581 31.576 10.2069 31.2677Z" fill="#3DA0BF"/>
<path d="M13.1672 26.2032C12.5265 25.6968 11.9742 25.3665 11.93 25.4325C11.8858 25.4986 12.3498 25.939 13.0126 26.4234C13.6533 26.9078 14.2056 27.2601 14.2498 27.1941C14.294 27.15 13.8079 26.6876 13.1672 26.2032Z" fill="#3DA0BF"/>
<path d="M16.3928 21.0066C16.3265 21.0506 16.68 21.6231 17.166 22.2617C17.6521 22.9003 18.0939 23.3847 18.1602 23.3407C18.2265 23.2966 17.873 22.7461 17.3869 22.0855C16.9009 21.447 16.459 20.9626 16.3928 21.0066Z" fill="#3DA0BF"/>
<path d="M21.894 17.9679C21.8056 17.9899 22.0044 18.6285 22.2917 19.3772C22.601 20.1258 22.8882 20.7203 22.9544 20.6763C23.0207 20.6543 22.844 20.0157 22.5568 19.2671C22.2696 18.5184 21.9603 17.9239 21.894 17.9679Z" fill="#3DA0BF"/>
<path d="M34.288 16.7128C34.1996 16.6908 34.0229 17.3293 33.9124 18.1221C33.7798 18.9148 33.7357 19.5753 33.8019 19.5753C33.8682 19.5974 34.045 18.9588 34.1775 18.1661C34.3322 17.3734 34.3764 16.7348 34.288 16.7128Z" fill="#3DA0BF"/>
<path d="M39.5239 19.8616C39.1926 20.5882 38.9495 21.2048 39.0158 21.2488C39.0821 21.2708 39.4135 20.7204 39.767 19.9937C40.1204 19.2671 40.3414 18.6505 40.2751 18.6065C40.2088 18.5624 39.8774 19.1349 39.5239 19.8616Z" fill="#3DA0BF"/>
<path d="M44.4727 23.0324C43.9425 23.6489 43.5669 24.1774 43.6111 24.2215C43.6553 24.2655 44.1413 23.8251 44.6715 23.2086C45.2017 22.614 45.5773 22.0635 45.5331 22.0195C45.4889 21.9755 45.0029 22.4379 44.4727 23.0324Z" fill="#3DA0BF"/>
<path d="M48.4052 27.4363C47.7424 27.8987 47.2122 28.2951 47.2564 28.3611C47.3005 28.4272 47.875 28.1189 48.5598 27.6785C49.2447 27.2381 49.7528 26.8198 49.7087 26.7537C49.6645 26.6656 49.068 26.9739 48.4052 27.4363Z" fill="#3DA0BF"/>
<path d="M50.9901 32.699C50.2169 32.9632 49.6203 33.2054 49.6424 33.2935C49.6645 33.3595 50.3052 33.2274 51.0785 32.9852C51.8517 32.743 52.4482 32.4788 52.4261 32.3907C52.404 32.3026 51.7634 32.4347 50.9901 32.699Z" fill="#3DA0BF"/>
<path d="M52.2714 38.9305C52.2052 38.9305 52.161 38.9305 52.0947 38.9305C51.697 38.9305 51.3214 38.9525 51.0342 38.9745C50.7028 39.0185 50.261 39.0406 50.261 39.4369C50.261 39.8333 50.6807 39.8773 51.0342 39.8993C51.3214 39.9214 51.697 39.9434 52.0947 39.9434H52.1389C53.5749 39.9434 53.7296 39.7892 53.8179 39.7012C53.8842 39.6351 53.9284 39.525 53.9284 39.4149C53.9284 39.0406 53.5749 38.9305 52.2714 38.9305Z" fill="#3DA0BF"/>
<path d="M29.2508 59.3646C28.8531 59.3646 28.7868 59.7829 28.7427 60.1132C28.6985 60.3995 28.6543 60.7738 28.6322 61.1702C28.5438 62.6455 28.6985 62.8216 28.7647 62.8877C28.831 62.9758 28.9415 63.0198 29.0299 63.0198H29.0519C29.4275 63.0198 29.4938 62.6014 29.538 62.2711C29.5822 61.9849 29.6043 61.6106 29.6264 61.2142C29.6485 60.8179 29.6485 60.4435 29.6264 60.1573C29.6705 59.805 29.6485 59.3646 29.2508 59.3646Z" fill="#3DA0BF"/>
<path d="M9.83129 36.7505C9.54409 36.6845 9.16851 36.6404 8.77084 36.5744C8.32898 36.5304 7.90922 36.4863 7.62201 36.4863C7.3569 36.4863 6.93714 36.4863 6.89295 36.8827C6.87086 36.9928 6.91505 37.0808 6.98132 37.1689C7.0476 37.257 7.20225 37.4331 8.66038 37.5873C9.10223 37.6313 9.52199 37.6533 9.8092 37.6533C10.0743 37.6533 10.4941 37.6533 10.5383 37.279C10.5824 36.9047 10.1627 36.8166 9.83129 36.7505Z" fill="#3DA0BF"/>
<path d="M28.6764 17.9019C28.5217 16.2504 28.3229 16.1183 28.0136 16.1183H27.9915H27.9694C27.859 16.1183 27.7706 16.1843 27.7043 16.2724C27.638 16.3605 27.4834 16.5366 27.638 18.012C27.6822 18.4083 27.7264 18.7826 27.7927 19.0689C27.859 19.3992 27.9252 19.7955 28.3008 19.7955H28.3229H28.345C28.7427 19.7515 28.7427 19.3331 28.7427 18.9808C28.7206 18.6725 28.6985 18.2982 28.6764 17.9019Z" fill="#3DA0BF"/>
<path d="M32.3658 41.5728L49.9959 39.3268L32.3658 37.5433V41.5728Z" fill="#3DA0BF"/>
<path d="M32.3658 41.5728L49.9959 39.3268H32.3658V41.5728Z" fill="#3DA0BF"/>
<path d="M28.4554 37.3451H31.4601L30.2008 24.3316L28.4554 37.3451Z" fill="#3DA0BF"/>
<path d="M30.1566 37.3451H31.4601L30.2008 24.3316L30.1566 37.3451Z" fill="#3DA0BF"/>
<path d="M30.3334 36.5524C28.6985 36.5524 27.3508 37.8735 27.3508 39.525C27.3508 41.1765 28.6764 42.4976 30.3334 42.4976C31.9903 42.4976 33.3159 41.1765 33.3159 39.525C33.3159 37.8735 31.9903 36.5524 30.3334 36.5524Z" fill="url(#paint0_linear)"/>
<path d="M30.3333 37.3231C29.1182 37.3231 28.124 38.3139 28.124 39.525C28.124 40.7361 29.1182 41.727 30.3333 41.727C31.5484 41.727 32.5426 40.7361 32.5426 39.525C32.5647 38.3139 31.5705 37.3231 30.3333 37.3231Z" fill="url(#paint1_radial)"/>
</g>
<defs>
<linearGradient id="paint0_linear" x1="27.3573" y1="39.5287" x2="33.3176" y2="39.5287" gradientUnits="userSpaceOnUse">
<stop stop-color="#00B6FA"/>
<stop offset="1" stop-color="#00578C"/>
</linearGradient>
<radialGradient id="paint1_radial" cx="0" cy="0" r="1" gradientUnits="userSpaceOnUse" gradientTransform="translate(30.3374 39.5288) scale(2.21805 2.21069)">
<stop offset="0.00446886" stop-color="white"/>
<stop offset="1" stop-color="#D6D9DE"/>
</radialGradient>
<clipPath id="clip0">
<rect width="60.6667" height="70" fill="white"/>
</clipPath>
</defs>
</svg>
