<svg width="15" height="22" viewBox="0 0 15 22" fill="none" xmlns="http://www.w3.org/2000/svg">
<path d="M1.08285 6.39972L0.587879 6.32901L0.587879 6.32901L1.08285 6.39972ZM1.06458 6.52764L1.55955 6.59835L1.55955 6.59835L1.06458 6.52764ZM13.5347 6.39972L14.0297 6.32902L14.0297 6.32901L13.5347 6.39972ZM13.553 6.52765L13.058 6.59836L13.058 6.59836L13.553 6.52765ZM10.9452 17.3636V17.8636C11.2213 17.8636 11.4452 17.6398 11.4452 17.3636H10.9452ZM3.67245 17.3636H3.17245C3.17245 17.6398 3.39631 17.8636 3.67245 17.8636V17.3636ZM2.31879 11.278L2.71419 10.972L2.31879 11.278ZM12.2988 11.278L11.9034 10.972L11.9034 10.972L12.2988 11.278ZM4.58154 21.5H10.0361V20.5H4.58154V21.5ZM0.587879 6.32901L0.569605 6.45693L1.55955 6.59835L1.57783 6.47043L0.587879 6.32901ZM7.30879 0.5C3.93017 0.5 1.06569 2.98434 0.587879 6.32901L1.57783 6.47043C1.98526 3.61842 4.42782 1.5 7.30879 1.5V0.5ZM14.0297 6.32901C13.5519 2.98435 10.6874 0.5 7.30879 0.5V1.5C10.1898 1.5 12.6323 3.61842 13.0397 6.47044L14.0297 6.32901ZM14.048 6.45694L14.0297 6.32902L13.0397 6.47043L13.058 6.59836L14.048 6.45694ZM12.6942 11.584C13.7745 10.1883 14.3211 8.36873 14.048 6.45694L13.058 6.59836C13.2911 8.23019 12.8258 9.78021 11.9034 10.972L12.6942 11.584ZM10.4452 14.4569V17.3636H11.4452V14.4569H10.4452ZM10.9452 16.8636H3.67245V17.8636H10.9452V16.8636ZM4.17245 17.3636V14.457H3.17245V17.3636H4.17245ZM0.569605 6.45693C0.296489 8.36874 0.843115 10.1884 1.92339 11.5841L2.71419 10.972C1.79177 9.78023 1.32643 8.2302 1.55955 6.59835L0.569605 6.45693ZM4.17245 14.457C4.17245 13.1021 3.45045 11.9232 2.71419 10.972L1.92339 11.5841C2.63181 12.4993 3.17245 13.4516 3.17245 14.457H4.17245ZM11.9034 10.972C11.1672 11.9232 10.4452 13.102 10.4452 14.4569H11.4452C11.4452 13.4515 11.9858 12.4993 12.6942 11.584L11.9034 10.972Z" fill="#3DA0BF"/>
</svg>
