<svg width="22" height="22" viewBox="0 0 22 22" fill="none" xmlns="http://www.w3.org/2000/svg">
<path d="M8.14752 16.7143L8.56346 16.4368C8.47071 16.2978 8.31464 16.2143 8.14752 16.2143V16.7143ZM11.0065 21L10.5906 21.2775C10.6833 21.4165 10.8394 21.5 11.0065 21.5C11.1736 21.5 11.3297 21.4165 11.4225 21.2775L11.0065 21ZM13.8655 16.7143V16.2143C13.6984 16.2143 13.5423 16.2978 13.4496 16.4368L13.8655 16.7143ZM7.73157 16.9918L10.5906 21.2775L11.4225 20.7225L8.56346 16.4368L7.73157 16.9918ZM11.4225 21.2775L14.2815 16.9918L13.4496 16.4368L10.5906 20.7225L11.4225 21.2775ZM13.8655 17.2143H19.5835V16.2143H13.8655V17.2143ZM19.5835 17.2143C20.6499 17.2143 21.513 16.3522 21.513 15.2857H20.513C20.513 15.7993 20.0982 16.2143 19.5835 16.2143V17.2143ZM21.513 15.2857V2.42857H20.513V15.2857H21.513ZM21.513 2.42857C21.513 1.36212 20.6499 0.5 19.5835 0.5V1.5C20.0982 1.5 20.513 1.91502 20.513 2.42857H21.513ZM19.5835 0.5H2.4295V1.5H19.5835V0.5ZM2.4295 0.5C1.36315 0.5 0.5 1.36212 0.5 2.42857H1.5C1.5 1.91502 1.91482 1.5 2.4295 1.5V0.5ZM0.5 2.42857V15.2857H1.5V2.42857H0.5ZM0.5 15.2857C0.5 16.3522 1.36315 17.2143 2.4295 17.2143V16.2143C1.91482 16.2143 1.5 15.7993 1.5 15.2857H0.5ZM2.4295 17.2143H8.14752V16.2143H2.4295V17.2143ZM7.43276 11.5065H14.5803V10.5065H7.43276V11.5065ZM6.00326 7.21801H16.0098V6.21801H6.00326V7.21801Z" fill="#3DA0BF"/>
</svg>
