<svg width="17" height="17" viewBox="0 0 17 17" fill="none" xmlns="http://www.w3.org/2000/svg">
<path fill-rule="evenodd" clip-rule="evenodd" d="M6.83286 1L6.74072 1.4679L6.38822 3.18C5.82465 3.39522 5.31357 3.7004 4.85179 4.06231L3.12893 3.48625L2.66608 3.34277L2.42608 3.75606L1.24 5.73903L1 6.15239L1.35143 6.45968L2.68429 7.59356C2.63608 7.89015 2.57394 8.18351 2.57394 8.4951C2.57394 8.80668 2.63608 9.1001 2.68429 9.39669L1.35143 10.5306L1 10.8379L1.24 11.2512L2.42608 13.2342L2.66608 13.6485L3.12893 13.504L4.85179 12.9279C5.31357 13.2899 5.82465 13.595 6.38822 13.8102L6.74072 15.5223L6.83286 15.9903H10.1661L10.2593 15.5223L10.6107 13.8102C11.1743 13.595 11.6854 13.2899 12.1471 12.9279L13.87 13.504L14.3329 13.6485L14.5739 13.2342L15.7589 11.2512L16 10.8379L15.6475 10.5306L14.3146 9.39669C14.3639 9.1001 14.425 8.80668 14.425 8.4951C14.425 8.18351 14.3639 7.89015 14.3146 7.59356L15.6475 6.45968L16 6.15239L15.7589 5.73903L14.5739 3.75606L14.3329 3.34277L13.87 3.48625L12.1471 4.06231C11.6854 3.7004 11.1743 3.39522 10.6107 3.18L10.2593 1.4679L10.1661 1H6.83286Z" stroke="#3DA0BF" stroke-linecap="square" stroke-linejoin="round"/>
<path fill-rule="evenodd" clip-rule="evenodd" d="M10.6425 8.4951C10.6425 9.67718 9.68246 10.6366 8.49961 10.6366C7.31675 10.6366 6.35675 9.67718 6.35675 8.4951C6.35675 7.31301 7.31675 6.35368 8.49961 6.35368C9.68246 6.35368 10.6425 7.31301 10.6425 8.4951Z" stroke="#3DA0BF" stroke-linecap="square" stroke-linejoin="round"/>
</svg>
