<svg width="14" height="16" viewBox="0 0 14 16" fill="none" xmlns="http://www.w3.org/2000/svg">
<path d="M1.78401 6.88957L1.28707 6.83435L1.78401 6.88957ZM1.00623 13.8896L1.50318 13.9448L1.00623 13.8896ZM12.7595 13.8896L12.2625 13.9448L12.7595 13.8896ZM11.9817 6.88957L12.4786 6.83435L11.9817 6.88957ZM1.28707 6.83435L0.509293 13.8344L1.50318 13.9448L2.28095 6.94478L1.28707 6.83435ZM2.00012 15.5H11.7656V14.5H2.00012V15.5ZM13.2564 13.8344L12.4786 6.83435L11.4848 6.94478L12.2625 13.9448L13.2564 13.8344ZM10.9878 5.5H2.7779V6.5H10.9878V5.5ZM12.4786 6.83435C12.3942 6.0747 11.7521 5.5 10.9878 5.5V6.5C11.2426 6.5 11.4566 6.69157 11.4848 6.94478L12.4786 6.83435ZM11.7656 15.5C12.6596 15.5 13.3551 14.7229 13.2564 13.8344L12.2625 13.9448C12.2954 14.241 12.0636 14.5 11.7656 14.5V15.5ZM0.509293 13.8344C0.410565 14.7229 1.1061 15.5 2.00012 15.5V14.5C1.70211 14.5 1.47027 14.241 1.50318 13.9448L0.509293 13.8344ZM2.28095 6.94478C2.30909 6.69157 2.52312 6.5 2.7779 6.5V5.5C2.01357 5.5 1.37148 6.0747 1.28707 6.83435L2.28095 6.94478ZM4.38285 4.5V4H3.38285V4.5H4.38285ZM9.38285 4V4.5H10.3829V4H9.38285ZM6.88285 1.5C8.26357 1.5 9.38285 2.61929 9.38285 4H10.3829C10.3829 2.067 8.81585 0.5 6.88285 0.5V1.5ZM4.38285 4C4.38285 2.61929 5.50214 1.5 6.88285 1.5V0.5C4.94986 0.5 3.38285 2.067 3.38285 4H4.38285Z" fill="#3DA0BF"/>
</svg>
