<svg width="32" height="64" viewBox="0 0 32 64" fill="none" xmlns="http://www.w3.org/2000/svg">
<path d="M29.2668 64H2.72224C1.22446 64 0 62.776 0 61.2787V2.72131C0 1.22404 1.22446 0 2.72224 0H29.2668C30.7755 0 31.9891 1.22404 31.9891 2.72131V61.2678C32 62.776 30.7755 64 29.2668 64Z" fill="#41B781"/>
<path d="M29.2668 63.0711H2.72223C1.72735 63.0711 0.918335 62.2623 0.918335 61.2678V2.72131C0.918335 1.72677 1.72735 0.91803 2.72223 0.91803H29.2668C30.2617 0.91803 31.0707 1.72677 31.0707 2.72131V61.2678C31.0707 62.2732 30.2617 63.0711 29.2668 63.0711Z" fill="white"/>
<path d="M15.9945 0.928955H9.45679L10.4845 2.63387C10.7796 3.12568 11.3153 3.42076 11.8838 3.42076H15.9945H20.1052C20.6737 3.42076 21.2094 3.12568 21.5046 2.63387L22.5323 0.928955H15.9945Z" fill="#41B781"/>
<path d="M31.0708 7.82513H0.929321V55.4099H31.0708V7.82513Z" fill="#B1DFE6"/>
<path d="M31.0708 8.43716L26.4572 11.1038L31.0708 19.0492V22.1858L25.0906 11.8907L11.0639 20L14.1032 25.2568L20.0615 21.8142L21.8108 24.8415L15.8525 28.2951L19.3509 34.3607L31.0708 27.5847V29.3989L20.1381 35.7159L31.0708 54.6339V55.4099H29.6932L18.7715 36.5027L8.59314 42.3935C11.2717 47.3443 11.6434 51.6721 11.6652 55.4099H10.1019C10.0691 51.8907 9.71921 47.8033 7.23749 43.1803L0.929321 46.8306V45.0164L6.46127 41.8142L0.929321 32.2404V29.0929L7.82785 41.0273L17.9953 35.1476L9.70828 20.7978L0.929321 25.8689V24.0547L8.92112 19.4317L2.21938 7.82513H4.03421L10.2768 18.6448L24.2925 10.5355L22.7182 7.82513H24.5439L25.6591 9.74863L28.9717 7.82513H31.0598V8.43716H31.0708Z" fill="white"/>
<path d="M14.7919 19.7158C14.7919 20 12.6491 20.2404 9.99245 20.2404C7.34673 20.2404 5.19299 20.0109 5.19299 19.7158C5.19299 19.4317 7.3358 19.1913 9.99245 19.1913C12.6382 19.1913 14.7919 19.4317 14.7919 19.7158Z" fill="#1E2859"/>
<path d="M12.8131 16.0219C13.3707 15.3661 13.7205 14.5246 13.7205 13.5956C13.7205 11.541 12.0478 9.86885 9.99245 9.86885C7.93711 9.86885 6.2644 11.541 6.2644 13.5956C6.2644 14.5246 6.60332 15.377 7.17182 16.0219L9.99245 19.7158L12.8131 16.0219Z" fill="#EC7B35"/>
<path d="M12.0868 14.0939C12.3624 12.9372 11.6478 11.7761 10.4907 11.5006C9.33354 11.2251 8.17208 11.9395 7.89648 13.0962C7.62088 14.253 8.3355 15.414 9.49262 15.6895C10.6497 15.965 11.8112 15.2507 12.0868 14.0939Z" fill="white"/>
</svg>
