<svg width="22" height="4" viewBox="0 0 22 4" fill="none" xmlns="http://www.w3.org/2000/svg">
<path d="M2.81818 1.90909C2.81818 2.41117 2.41117 2.81818 1.90909 2.81818C1.40701 2.81818 1 2.41117 1 1.90909C1 1.40701 1.40701 1 1.90909 1C2.41117 1 2.81818 1.40701 2.81818 1.90909Z" stroke="#3DA0BF"/>
<path d="M11.9091 1.90909C11.9091 2.41117 11.5021 2.81818 11 2.81818C10.4979 2.81818 10.0909 2.41117 10.0909 1.90909C10.0909 1.40701 10.4979 1 11 1C11.5021 1 11.9091 1.40701 11.9091 1.90909Z" stroke="#3DA0BF"/>
<path d="M21 1.90909C21 2.41117 20.593 2.81818 20.0909 2.81818C19.5888 2.81818 19.1818 2.41117 19.1818 1.90909C19.1818 1.40701 19.5888 1 20.0909 1C20.593 1 21 1.40701 21 1.90909Z" stroke="#3DA0BF"/>
</svg>
