<svg width="22" height="22" viewBox="0 0 22 22" fill="none" xmlns="http://www.w3.org/2000/svg">
<path d="M11 1.71429H11.5C11.5 1.5249 11.393 1.35177 11.2236 1.26707L11 1.71429ZM11 3.14286L11.2236 3.59007C11.393 3.50537 11.5 3.33224 11.5 3.14286H11ZM9.57143 3.85714L9.34782 3.40993C9.1884 3.48964 9.08347 3.64818 9.07239 3.82607C9.06132 4.00396 9.14578 4.1743 9.29408 4.27317L9.57143 3.85714ZM11.7143 5.28571L11.4369 5.70174C11.5191 5.75649 11.6156 5.78571 11.7143 5.78571V5.28571ZM12.4286 5.28571V5.78571C12.7047 5.78571 12.9286 5.56186 12.9286 5.28571H12.4286ZM12.4286 3.85714V3.35714C12.1524 3.35714 11.9286 3.581 11.9286 3.85714H12.4286ZM14.5714 3.85714H15.0714C15.0714 3.581 14.8476 3.35714 14.5714 3.35714V3.85714ZM14.5714 5.28571H14.0714C14.0714 5.41832 14.1241 5.5455 14.2179 5.63927L14.5714 5.28571ZM15.2857 6H15.7857C15.7857 5.86739 15.733 5.74021 15.6393 5.64645L15.2857 6ZM15.2857 7.42857L15.6393 7.78212C15.733 7.68836 15.7857 7.56118 15.7857 7.42857H15.2857ZM14.5714 8.14286V8.64286C14.704 8.64286 14.8312 8.59018 14.925 8.49641L14.5714 8.14286ZM13.1429 8.14286L12.9193 8.59007C12.9887 8.62478 13.0652 8.64286 13.1429 8.64286V8.14286ZM10.2857 6.71429L10.5093 6.26707C10.3686 6.19669 10.2029 6.19669 10.0621 6.26707L10.2857 6.71429ZM8.85714 7.42857V7.92857C8.93477 7.92857 9.01132 7.9105 9.08075 7.87579L8.85714 7.42857ZM6.71429 7.42857V6.92857C6.48485 6.92857 6.28486 7.08472 6.22921 7.3073L6.71429 7.42857ZM6 10.2857L5.51493 10.1644C5.47233 10.3348 5.52226 10.5151 5.64645 10.6393L6 10.2857ZM8.14286 12.4286L7.7893 12.7821C7.8273 12.8201 7.87118 12.8518 7.91925 12.8758L8.14286 12.4286ZM9.57143 13.1429H10.0714C10.0714 12.9535 9.96443 12.7803 9.79504 12.6956L9.57143 13.1429ZM9.57143 15.2857H9.07143C9.07143 15.4183 9.12411 15.5455 9.21788 15.6393L9.57143 15.2857ZM10.2857 16H10.7857C10.7857 15.8674 10.733 15.7402 10.6393 15.6464L10.2857 16ZM10.2857 17.4286H9.78571C9.78571 17.5062 9.80379 17.5828 9.8385 17.6522L10.2857 17.4286ZM11 18.8571L10.5528 19.0807C10.6375 19.2501 10.8106 19.3571 11 19.3571V18.8571ZM12.4286 18.8571V19.3571C12.5957 19.3571 12.7519 19.2736 12.8446 19.1345L12.4286 18.8571ZM13.8571 16.7143L14.2732 16.9916C14.2847 16.9744 14.2951 16.9564 14.3044 16.9379L13.8571 16.7143ZM14.5714 15.2857L15.0186 15.5093C15.0534 15.4399 15.0714 15.3633 15.0714 15.2857H14.5714ZM14.5714 13.8571L14.1714 13.5571C14.1065 13.6437 14.0714 13.749 14.0714 13.8571H14.5714ZM16.7143 11L17.1143 11.3C17.2279 11.1485 17.2462 10.9458 17.1615 10.7764L16.7143 11ZM16 9.57143V9.07143C15.8267 9.07143 15.6658 9.16115 15.5747 9.30856C15.4836 9.45597 15.4753 9.64004 15.5528 9.79504L16 9.57143ZM18.1429 9.57143V10.0714C18.419 10.0714 18.6429 9.84757 18.6429 9.57143H18.1429ZM18.1429 8.14286V7.64286C17.8667 7.64286 17.6429 7.86671 17.6429 8.14286H18.1429ZM11 20.5C5.75329 20.5 1.5 16.2467 1.5 11H0.5C0.5 16.799 5.20101 21.5 11 21.5V20.5ZM20.5 11C20.5 16.2467 16.2467 20.5 11 20.5V21.5C16.799 21.5 21.5 16.799 21.5 11H20.5ZM11 1.5C16.2467 1.5 20.5 5.75329 20.5 11H21.5C21.5 5.20101 16.799 0.5 11 0.5V1.5ZM11 0.5C5.20101 0.5 0.5 5.20101 0.5 11H1.5C1.5 5.7533 5.7533 1.5 11 1.5V0.5ZM9.34782 1.44721L10.7764 2.1615L11.2236 1.26707L9.79504 0.552786L9.34782 1.44721ZM10.5 1.71429V3.14286H11.5V1.71429H10.5ZM10.7764 2.69564L9.34782 3.40993L9.79504 4.30436L11.2236 3.59007L10.7764 2.69564ZM9.29408 4.27317L11.4369 5.70174L11.9916 4.86969L9.84878 3.44112L9.29408 4.27317ZM11.7143 5.78571H12.4286V4.78571H11.7143V5.78571ZM12.9286 5.28571V3.85714H11.9286V5.28571H12.9286ZM12.4286 4.35714H14.5714V3.35714H12.4286V4.35714ZM14.0714 3.85714V5.28571H15.0714V3.85714H14.0714ZM14.2179 5.63927L14.9322 6.35355L15.6393 5.64645L14.925 4.93216L14.2179 5.63927ZM14.7857 6V7.42857H15.7857V6H14.7857ZM14.9322 7.07502L14.2179 7.7893L14.925 8.49641L15.6393 7.78212L14.9322 7.07502ZM14.5714 7.64286H13.1429V8.64286H14.5714V7.64286ZM13.3665 7.69564L10.5093 6.26707L10.0621 7.1615L12.9193 8.59007L13.3665 7.69564ZM10.0621 6.26707L8.63354 6.98136L9.08075 7.87579L10.5093 7.1615L10.0621 6.26707ZM8.85714 6.92857H6.71429V7.92857H8.85714V6.92857ZM6.22921 7.3073L5.51493 10.1644L6.48507 10.407L7.19936 7.54984L6.22921 7.3073ZM5.64645 10.6393L7.7893 12.7821L8.49641 12.075L6.35355 9.93216L5.64645 10.6393ZM7.91925 12.8758L9.34782 13.5901L9.79504 12.6956L8.36646 11.9814L7.91925 12.8758ZM9.07143 13.1429V15.2857H10.0714V13.1429H9.07143ZM9.21788 15.6393L9.93216 16.3536L10.6393 15.6464L9.92498 14.9322L9.21788 15.6393ZM9.78571 16V17.4286H10.7857V16H9.78571ZM9.8385 17.6522L10.5528 19.0807L11.4472 18.6335L10.7329 17.205L9.8385 17.6522ZM11 19.3571H12.4286V18.3571H11V19.3571ZM12.8446 19.1345L14.2732 16.9916L13.4411 16.4369L12.0125 18.5798L12.8446 19.1345ZM14.3044 16.9379L15.0186 15.5093L14.1242 15.0621L13.4099 16.4907L14.3044 16.9379ZM15.0714 15.2857V13.8571H14.0714V15.2857H15.0714ZM14.9714 14.1571L17.1143 11.3L16.3143 10.7L14.1714 13.5571L14.9714 14.1571ZM17.1615 10.7764L16.4472 9.34782L15.5528 9.79504L16.2671 11.2236L17.1615 10.7764ZM16 10.0714H18.1429V9.07143H16V10.0714ZM18.6429 9.57143V8.14286H17.6429V9.57143H18.6429ZM18.1429 8.64286H21V7.64286H18.1429V8.64286Z" fill="#3DA0BF"/>
</svg>
