<svg width="22" height="22" viewBox="0 0 22 22" fill="none" xmlns="http://www.w3.org/2000/svg">
<path d="M4.78571 18.8571V19.3571H5.78571V18.8571H4.78571ZM16.2143 18.8571V19.3571H17.2143V18.8571H16.2143ZM5.78571 18.8571V18.1427H4.78571V18.8571H5.78571ZM9.57143 14.3571H12.4286V13.3571H9.57143V14.3571ZM16.2143 18.1427V18.8571H17.2143V18.1427H16.2143ZM12.4286 14.3571C14.5194 14.3571 16.2143 16.0519 16.2143 18.1427H17.2143C17.2143 15.4995 15.0716 13.3571 12.4286 13.3571V14.3571ZM5.78571 18.1427C5.78571 16.0519 7.48061 14.3571 9.57143 14.3571V13.3571C6.92838 13.3571 4.78571 15.4995 4.78571 18.1427H5.78571ZM11 4.78571C9.1459 4.78571 7.64286 6.28876 7.64286 8.14286H8.64286C8.64286 6.84104 9.69819 5.78571 11 5.78571V4.78571ZM14.3571 8.14286C14.3571 6.28876 12.8541 4.78571 11 4.78571V5.78571C12.3018 5.78571 13.3571 6.84104 13.3571 8.14286H14.3571ZM11 11.5C12.8541 11.5 14.3571 9.99696 14.3571 8.14286H13.3571C13.3571 9.44467 12.3018 10.5 11 10.5V11.5ZM11 10.5C9.69819 10.5 8.64286 9.44467 8.64286 8.14286H7.64286C7.64286 9.99696 9.1459 11.5 11 11.5V10.5ZM11 20.5C5.7533 20.5 1.5 16.2467 1.5 11H0.5C0.5 16.799 5.20101 21.5 11 21.5V20.5ZM20.5 11C20.5 16.2467 16.2467 20.5 11 20.5V21.5C16.799 21.5 21.5 16.799 21.5 11H20.5ZM11 1.5C16.2467 1.5 20.5 5.7533 20.5 11H21.5C21.5 5.20101 16.799 0.5 11 0.5V1.5ZM11 0.5C5.20101 0.5 0.5 5.20101 0.5 11H1.5C1.5 5.7533 5.7533 1.5 11 1.5V0.5Z" fill="#3DA0BF"/>
</svg>
